#format: frame checksums
#version: 2
#hash: MD5
#tb 0: 1/25
#media_type 0: video
#codec_id 0: rawvideo
#dimensions 0: 128x128
#sar 0: 1/1
#stream#, dts,        pts, duration,     size, hash
0,          0,          0,        1,    24576, 0d01217c5d1ec6799643fc7d75ba2337
0,          1,          1,        1,    24576, f73d9cca9b4c1765d0ead242c3f0c339
0,          2,          2,        1,    24576, 39a8714d763c623ae7f6faae34e107d1
0,          3,          3,        1,    24576, 5db2600aa268b4fd28b64ab28a096f32
